<svg id="Component_1_1" data-name="Component 1 – 1" xmlns="http://www.w3.org/2000/svg" xmlns:xlink="http://www.w3.org/1999/xlink" width="246" height="580" viewBox="0 0 246 580">
  <defs>
    <clipPath id="clip-path">
      <rect width="246" height="580" fill="none"/>
    </clipPath>
  </defs>
  <g id="Repeat_Grid_1" data-name="Repeat Grid 1" clip-path="url(#clip-path)">
    <g transform="translate(-73 -57)">
      <circle id="Ellipse_1" data-name="Ellipse 1" cx="4" cy="4" r="4" transform="translate(73 57)" fill="#85b8a3"/>
    </g>
    <g transform="translate(-45 -57)">
      <circle id="Ellipse_1-2" data-name="Ellipse 1" cx="4" cy="4" r="4" transform="translate(73 57)" fill="#85b8a3"/>
    </g>
    <g transform="translate(-17 -57)">
      <circle id="Ellipse_1-3" data-name="Ellipse 1" cx="4" cy="4" r="4" transform="translate(73 57)" fill="#85b8a3"/>
    </g>
    <g transform="translate(11 -57)">
      <circle id="Ellipse_1-4" data-name="Ellipse 1" cx="4" cy="4" r="4" transform="translate(73 57)" fill="#85b8a3"/>
    </g>
    <g transform="translate(39 -57)">
      <circle id="Ellipse_1-5" data-name="Ellipse 1" cx="4" cy="4" r="4" transform="translate(73 57)" fill="#85b8a3"/>
    </g>
    <g transform="translate(67 -57)">
      <circle id="Ellipse_1-6" data-name="Ellipse 1" cx="4" cy="4" r="4" transform="translate(73 57)" fill="#85b8a3"/>
    </g>
    <g transform="translate(95 -57)">
      <circle id="Ellipse_1-7" data-name="Ellipse 1" cx="4" cy="4" r="4" transform="translate(73 57)" fill="#85b8a3"/>
    </g>
    <g transform="translate(123 -57)">
      <circle id="Ellipse_1-8" data-name="Ellipse 1" cx="4" cy="4" r="4" transform="translate(73 57)" fill="#85b8a3"/>
    </g>
    <g transform="translate(151 -57)">
      <circle id="Ellipse_1-9" data-name="Ellipse 1" cx="4" cy="4" r="4" transform="translate(73 57)" fill="#85b8a3"/>
    </g>
    <g transform="translate(-73 -29)">
      <circle id="Ellipse_1-10" data-name="Ellipse 1" cx="4" cy="4" r="4" transform="translate(73 57)" fill="#85b8a3"/>
    </g>
    <g transform="translate(-45 -29)">
      <circle id="Ellipse_1-11" data-name="Ellipse 1" cx="4" cy="4" r="4" transform="translate(73 57)" fill="#85b8a3"/>
    </g>
    <g transform="translate(-17 -29)">
      <circle id="Ellipse_1-12" data-name="Ellipse 1" cx="4" cy="4" r="4" transform="translate(73 57)" fill="#85b8a3"/>
    </g>
    <g transform="translate(11 -29)">
      <circle id="Ellipse_1-13" data-name="Ellipse 1" cx="4" cy="4" r="4" transform="translate(73 57)" fill="#85b8a3"/>
    </g>
    <g transform="translate(39 -29)">
      <circle id="Ellipse_1-14" data-name="Ellipse 1" cx="4" cy="4" r="4" transform="translate(73 57)" fill="#85b8a3"/>
    </g>
    <g transform="translate(67 -29)">
      <circle id="Ellipse_1-15" data-name="Ellipse 1" cx="4" cy="4" r="4" transform="translate(73 57)" fill="#85b8a3"/>
    </g>
    <g transform="translate(95 -29)">
      <circle id="Ellipse_1-16" data-name="Ellipse 1" cx="4" cy="4" r="4" transform="translate(73 57)" fill="#85b8a3"/>
    </g>
    <g transform="translate(123 -29)">
      <circle id="Ellipse_1-17" data-name="Ellipse 1" cx="4" cy="4" r="4" transform="translate(73 57)" fill="#85b8a3"/>
    </g>
    <g transform="translate(151 -29)">
      <circle id="Ellipse_1-18" data-name="Ellipse 1" cx="4" cy="4" r="4" transform="translate(73 57)" fill="#85b8a3"/>
    </g>
    <g transform="translate(-73 -1)">
      <circle id="Ellipse_1-19" data-name="Ellipse 1" cx="4" cy="4" r="4" transform="translate(73 57)" fill="#85b8a3"/>
    </g>
    <g transform="translate(-45 -1)">
      <circle id="Ellipse_1-20" data-name="Ellipse 1" cx="4" cy="4" r="4" transform="translate(73 57)" fill="#85b8a3"/>
    </g>
    <g transform="translate(-17 -1)">
      <circle id="Ellipse_1-21" data-name="Ellipse 1" cx="4" cy="4" r="4" transform="translate(73 57)" fill="#85b8a3"/>
    </g>
    <g transform="translate(11 -1)">
      <circle id="Ellipse_1-22" data-name="Ellipse 1" cx="4" cy="4" r="4" transform="translate(73 57)" fill="#85b8a3"/>
    </g>
    <g transform="translate(39 -1)">
      <circle id="Ellipse_1-23" data-name="Ellipse 1" cx="4" cy="4" r="4" transform="translate(73 57)" fill="#85b8a3"/>
    </g>
    <g transform="translate(67 -1)">
      <circle id="Ellipse_1-24" data-name="Ellipse 1" cx="4" cy="4" r="4" transform="translate(73 57)" fill="#85b8a3"/>
    </g>
    <g transform="translate(95 -1)">
      <circle id="Ellipse_1-25" data-name="Ellipse 1" cx="4" cy="4" r="4" transform="translate(73 57)" fill="#85b8a3"/>
    </g>
    <g transform="translate(123 -1)">
      <circle id="Ellipse_1-26" data-name="Ellipse 1" cx="4" cy="4" r="4" transform="translate(73 57)" fill="#85b8a3"/>
    </g>
    <g transform="translate(151 -1)">
      <circle id="Ellipse_1-27" data-name="Ellipse 1" cx="4" cy="4" r="4" transform="translate(73 57)" fill="#85b8a3"/>
    </g>
    <g transform="translate(-73 27)">
      <circle id="Ellipse_1-28" data-name="Ellipse 1" cx="4" cy="4" r="4" transform="translate(73 57)" fill="#85b8a3"/>
    </g>
    <g transform="translate(-45 27)">
      <circle id="Ellipse_1-29" data-name="Ellipse 1" cx="4" cy="4" r="4" transform="translate(73 57)" fill="#85b8a3"/>
    </g>
    <g transform="translate(-17 27)">
      <circle id="Ellipse_1-30" data-name="Ellipse 1" cx="4" cy="4" r="4" transform="translate(73 57)" fill="#85b8a3"/>
    </g>
    <g transform="translate(11 27)">
      <circle id="Ellipse_1-31" data-name="Ellipse 1" cx="4" cy="4" r="4" transform="translate(73 57)" fill="#85b8a3"/>
    </g>
    <g transform="translate(39 27)">
      <circle id="Ellipse_1-32" data-name="Ellipse 1" cx="4" cy="4" r="4" transform="translate(73 57)" fill="#85b8a3"/>
    </g>
    <g transform="translate(67 27)">
      <circle id="Ellipse_1-33" data-name="Ellipse 1" cx="4" cy="4" r="4" transform="translate(73 57)" fill="#85b8a3"/>
    </g>
    <g transform="translate(95 27)">
      <circle id="Ellipse_1-34" data-name="Ellipse 1" cx="4" cy="4" r="4" transform="translate(73 57)" fill="#85b8a3"/>
    </g>
    <g transform="translate(123 27)">
      <circle id="Ellipse_1-35" data-name="Ellipse 1" cx="4" cy="4" r="4" transform="translate(73 57)" fill="#85b8a3"/>
    </g>
    <g transform="translate(151 27)">
      <circle id="Ellipse_1-36" data-name="Ellipse 1" cx="4" cy="4" r="4" transform="translate(73 57)" fill="#85b8a3"/>
    </g>
    <g transform="translate(-73 55)">
      <circle id="Ellipse_1-37" data-name="Ellipse 1" cx="4" cy="4" r="4" transform="translate(73 57)" fill="#85b8a3"/>
    </g>
    <g transform="translate(-45 55)">
      <circle id="Ellipse_1-38" data-name="Ellipse 1" cx="4" cy="4" r="4" transform="translate(73 57)" fill="#85b8a3"/>
    </g>
    <g transform="translate(-17 55)">
      <circle id="Ellipse_1-39" data-name="Ellipse 1" cx="4" cy="4" r="4" transform="translate(73 57)" fill="#85b8a3"/>
    </g>
    <g transform="translate(11 55)">
      <circle id="Ellipse_1-40" data-name="Ellipse 1" cx="4" cy="4" r="4" transform="translate(73 57)" fill="#85b8a3"/>
    </g>
    <g transform="translate(39 55)">
      <circle id="Ellipse_1-41" data-name="Ellipse 1" cx="4" cy="4" r="4" transform="translate(73 57)" fill="#85b8a3"/>
    </g>
    <g transform="translate(67 55)">
      <circle id="Ellipse_1-42" data-name="Ellipse 1" cx="4" cy="4" r="4" transform="translate(73 57)" fill="#85b8a3"/>
    </g>
    <g transform="translate(95 55)">
      <circle id="Ellipse_1-43" data-name="Ellipse 1" cx="4" cy="4" r="4" transform="translate(73 57)" fill="#85b8a3"/>
    </g>
    <g transform="translate(123 55)">
      <circle id="Ellipse_1-44" data-name="Ellipse 1" cx="4" cy="4" r="4" transform="translate(73 57)" fill="#85b8a3"/>
    </g>
    <g transform="translate(151 55)">
      <circle id="Ellipse_1-45" data-name="Ellipse 1" cx="4" cy="4" r="4" transform="translate(73 57)" fill="#85b8a3"/>
    </g>
    <g transform="translate(-73 83)">
      <circle id="Ellipse_1-46" data-name="Ellipse 1" cx="4" cy="4" r="4" transform="translate(73 57)" fill="#85b8a3"/>
    </g>
    <g transform="translate(-45 83)">
      <circle id="Ellipse_1-47" data-name="Ellipse 1" cx="4" cy="4" r="4" transform="translate(73 57)" fill="#85b8a3"/>
    </g>
    <g transform="translate(-17 83)">
      <circle id="Ellipse_1-48" data-name="Ellipse 1" cx="4" cy="4" r="4" transform="translate(73 57)" fill="#85b8a3"/>
    </g>
    <g transform="translate(11 83)">
      <circle id="Ellipse_1-49" data-name="Ellipse 1" cx="4" cy="4" r="4" transform="translate(73 57)" fill="#85b8a3"/>
    </g>
    <g transform="translate(39 83)">
      <circle id="Ellipse_1-50" data-name="Ellipse 1" cx="4" cy="4" r="4" transform="translate(73 57)" fill="#85b8a3"/>
    </g>
    <g transform="translate(67 83)">
      <circle id="Ellipse_1-51" data-name="Ellipse 1" cx="4" cy="4" r="4" transform="translate(73 57)" fill="#85b8a3"/>
    </g>
    <g transform="translate(95 83)">
      <circle id="Ellipse_1-52" data-name="Ellipse 1" cx="4" cy="4" r="4" transform="translate(73 57)" fill="#85b8a3"/>
    </g>
    <g transform="translate(123 83)">
      <circle id="Ellipse_1-53" data-name="Ellipse 1" cx="4" cy="4" r="4" transform="translate(73 57)" fill="#85b8a3"/>
    </g>
    <g transform="translate(151 83)">
      <circle id="Ellipse_1-54" data-name="Ellipse 1" cx="4" cy="4" r="4" transform="translate(73 57)" fill="#85b8a3"/>
    </g>
    <g transform="translate(-73 111)">
      <circle id="Ellipse_1-55" data-name="Ellipse 1" cx="4" cy="4" r="4" transform="translate(73 57)" fill="#85b8a3"/>
    </g>
    <g transform="translate(-45 111)">
      <circle id="Ellipse_1-56" data-name="Ellipse 1" cx="4" cy="4" r="4" transform="translate(73 57)" fill="#85b8a3"/>
    </g>
    <g transform="translate(-17 111)">
      <circle id="Ellipse_1-57" data-name="Ellipse 1" cx="4" cy="4" r="4" transform="translate(73 57)" fill="#85b8a3"/>
    </g>
    <g transform="translate(11 111)">
      <circle id="Ellipse_1-58" data-name="Ellipse 1" cx="4" cy="4" r="4" transform="translate(73 57)" fill="#85b8a3"/>
    </g>
    <g transform="translate(39 111)">
      <circle id="Ellipse_1-59" data-name="Ellipse 1" cx="4" cy="4" r="4" transform="translate(73 57)" fill="#85b8a3"/>
    </g>
    <g transform="translate(67 111)">
      <circle id="Ellipse_1-60" data-name="Ellipse 1" cx="4" cy="4" r="4" transform="translate(73 57)" fill="#85b8a3"/>
    </g>
    <g transform="translate(95 111)">
      <circle id="Ellipse_1-61" data-name="Ellipse 1" cx="4" cy="4" r="4" transform="translate(73 57)" fill="#85b8a3"/>
    </g>
    <g transform="translate(123 111)">
      <circle id="Ellipse_1-62" data-name="Ellipse 1" cx="4" cy="4" r="4" transform="translate(73 57)" fill="#85b8a3"/>
    </g>
    <g transform="translate(151 111)">
      <circle id="Ellipse_1-63" data-name="Ellipse 1" cx="4" cy="4" r="4" transform="translate(73 57)" fill="#85b8a3"/>
    </g>
    <g transform="translate(-73 139)">
      <circle id="Ellipse_1-64" data-name="Ellipse 1" cx="4" cy="4" r="4" transform="translate(73 57)" fill="#85b8a3"/>
    </g>
    <g transform="translate(-45 139)">
      <circle id="Ellipse_1-65" data-name="Ellipse 1" cx="4" cy="4" r="4" transform="translate(73 57)" fill="#85b8a3"/>
    </g>
    <g transform="translate(-17 139)">
      <circle id="Ellipse_1-66" data-name="Ellipse 1" cx="4" cy="4" r="4" transform="translate(73 57)" fill="#85b8a3"/>
    </g>
    <g transform="translate(11 139)">
      <circle id="Ellipse_1-67" data-name="Ellipse 1" cx="4" cy="4" r="4" transform="translate(73 57)" fill="#85b8a3"/>
    </g>
    <g transform="translate(39 139)">
      <circle id="Ellipse_1-68" data-name="Ellipse 1" cx="4" cy="4" r="4" transform="translate(73 57)" fill="#85b8a3"/>
    </g>
    <g transform="translate(67 139)">
      <circle id="Ellipse_1-69" data-name="Ellipse 1" cx="4" cy="4" r="4" transform="translate(73 57)" fill="#85b8a3"/>
    </g>
    <g transform="translate(95 139)">
      <circle id="Ellipse_1-70" data-name="Ellipse 1" cx="4" cy="4" r="4" transform="translate(73 57)" fill="#85b8a3"/>
    </g>
    <g transform="translate(123 139)">
      <circle id="Ellipse_1-71" data-name="Ellipse 1" cx="4" cy="4" r="4" transform="translate(73 57)" fill="#85b8a3"/>
    </g>
    <g transform="translate(151 139)">
      <circle id="Ellipse_1-72" data-name="Ellipse 1" cx="4" cy="4" r="4" transform="translate(73 57)" fill="#85b8a3"/>
    </g>
    <g transform="translate(-73 167)">
      <circle id="Ellipse_1-73" data-name="Ellipse 1" cx="4" cy="4" r="4" transform="translate(73 57)" fill="#85b8a3"/>
    </g>
    <g transform="translate(-45 167)">
      <circle id="Ellipse_1-74" data-name="Ellipse 1" cx="4" cy="4" r="4" transform="translate(73 57)" fill="#85b8a3"/>
    </g>
    <g transform="translate(-17 167)">
      <circle id="Ellipse_1-75" data-name="Ellipse 1" cx="4" cy="4" r="4" transform="translate(73 57)" fill="#85b8a3"/>
    </g>
    <g transform="translate(11 167)">
      <circle id="Ellipse_1-76" data-name="Ellipse 1" cx="4" cy="4" r="4" transform="translate(73 57)" fill="#85b8a3"/>
    </g>
    <g transform="translate(39 167)">
      <circle id="Ellipse_1-77" data-name="Ellipse 1" cx="4" cy="4" r="4" transform="translate(73 57)" fill="#85b8a3"/>
    </g>
    <g transform="translate(67 167)">
      <circle id="Ellipse_1-78" data-name="Ellipse 1" cx="4" cy="4" r="4" transform="translate(73 57)" fill="#85b8a3"/>
    </g>
    <g transform="translate(95 167)">
      <circle id="Ellipse_1-79" data-name="Ellipse 1" cx="4" cy="4" r="4" transform="translate(73 57)" fill="#85b8a3"/>
    </g>
    <g transform="translate(123 167)">
      <circle id="Ellipse_1-80" data-name="Ellipse 1" cx="4" cy="4" r="4" transform="translate(73 57)" fill="#85b8a3"/>
    </g>
    <g transform="translate(151 167)">
      <circle id="Ellipse_1-81" data-name="Ellipse 1" cx="4" cy="4" r="4" transform="translate(73 57)" fill="#85b8a3"/>
    </g>
    <g transform="translate(-73 195)">
      <circle id="Ellipse_1-82" data-name="Ellipse 1" cx="4" cy="4" r="4" transform="translate(73 57)" fill="#85b8a3"/>
    </g>
    <g transform="translate(-45 195)">
      <circle id="Ellipse_1-83" data-name="Ellipse 1" cx="4" cy="4" r="4" transform="translate(73 57)" fill="#85b8a3"/>
    </g>
    <g transform="translate(-17 195)">
      <circle id="Ellipse_1-84" data-name="Ellipse 1" cx="4" cy="4" r="4" transform="translate(73 57)" fill="#85b8a3"/>
    </g>
    <g transform="translate(11 195)">
      <circle id="Ellipse_1-85" data-name="Ellipse 1" cx="4" cy="4" r="4" transform="translate(73 57)" fill="#85b8a3"/>
    </g>
    <g transform="translate(39 195)">
      <circle id="Ellipse_1-86" data-name="Ellipse 1" cx="4" cy="4" r="4" transform="translate(73 57)" fill="#85b8a3"/>
    </g>
    <g transform="translate(67 195)">
      <circle id="Ellipse_1-87" data-name="Ellipse 1" cx="4" cy="4" r="4" transform="translate(73 57)" fill="#85b8a3"/>
    </g>
    <g transform="translate(95 195)">
      <circle id="Ellipse_1-88" data-name="Ellipse 1" cx="4" cy="4" r="4" transform="translate(73 57)" fill="#85b8a3"/>
    </g>
    <g transform="translate(123 195)">
      <circle id="Ellipse_1-89" data-name="Ellipse 1" cx="4" cy="4" r="4" transform="translate(73 57)" fill="#85b8a3"/>
    </g>
    <g transform="translate(151 195)">
      <circle id="Ellipse_1-90" data-name="Ellipse 1" cx="4" cy="4" r="4" transform="translate(73 57)" fill="#85b8a3"/>
    </g>
    <g transform="translate(-73 223)">
      <circle id="Ellipse_1-91" data-name="Ellipse 1" cx="4" cy="4" r="4" transform="translate(73 57)" fill="#85b8a3"/>
    </g>
    <g transform="translate(-45 223)">
      <circle id="Ellipse_1-92" data-name="Ellipse 1" cx="4" cy="4" r="4" transform="translate(73 57)" fill="#85b8a3"/>
    </g>
    <g transform="translate(-17 223)">
      <circle id="Ellipse_1-93" data-name="Ellipse 1" cx="4" cy="4" r="4" transform="translate(73 57)" fill="#85b8a3"/>
    </g>
    <g transform="translate(11 223)">
      <circle id="Ellipse_1-94" data-name="Ellipse 1" cx="4" cy="4" r="4" transform="translate(73 57)" fill="#85b8a3"/>
    </g>
    <g transform="translate(39 223)">
      <circle id="Ellipse_1-95" data-name="Ellipse 1" cx="4" cy="4" r="4" transform="translate(73 57)" fill="#85b8a3"/>
    </g>
    <g transform="translate(67 223)">
      <circle id="Ellipse_1-96" data-name="Ellipse 1" cx="4" cy="4" r="4" transform="translate(73 57)" fill="#85b8a3"/>
    </g>
    <g transform="translate(95 223)">
      <circle id="Ellipse_1-97" data-name="Ellipse 1" cx="4" cy="4" r="4" transform="translate(73 57)" fill="#85b8a3"/>
    </g>
    <g transform="translate(123 223)">
      <circle id="Ellipse_1-98" data-name="Ellipse 1" cx="4" cy="4" r="4" transform="translate(73 57)" fill="#85b8a3"/>
    </g>
    <g transform="translate(151 223)">
      <circle id="Ellipse_1-99" data-name="Ellipse 1" cx="4" cy="4" r="4" transform="translate(73 57)" fill="#85b8a3"/>
    </g>
    <g transform="translate(-73 251)">
      <circle id="Ellipse_1-100" data-name="Ellipse 1" cx="4" cy="4" r="4" transform="translate(73 57)" fill="#85b8a3"/>
    </g>
    <g transform="translate(-45 251)">
      <circle id="Ellipse_1-101" data-name="Ellipse 1" cx="4" cy="4" r="4" transform="translate(73 57)" fill="#85b8a3"/>
    </g>
    <g transform="translate(-17 251)">
      <circle id="Ellipse_1-102" data-name="Ellipse 1" cx="4" cy="4" r="4" transform="translate(73 57)" fill="#85b8a3"/>
    </g>
    <g transform="translate(11 251)">
      <circle id="Ellipse_1-103" data-name="Ellipse 1" cx="4" cy="4" r="4" transform="translate(73 57)" fill="#85b8a3"/>
    </g>
    <g transform="translate(39 251)">
      <circle id="Ellipse_1-104" data-name="Ellipse 1" cx="4" cy="4" r="4" transform="translate(73 57)" fill="#85b8a3"/>
    </g>
    <g transform="translate(67 251)">
      <circle id="Ellipse_1-105" data-name="Ellipse 1" cx="4" cy="4" r="4" transform="translate(73 57)" fill="#85b8a3"/>
    </g>
    <g transform="translate(95 251)">
      <circle id="Ellipse_1-106" data-name="Ellipse 1" cx="4" cy="4" r="4" transform="translate(73 57)" fill="#85b8a3"/>
    </g>
    <g transform="translate(123 251)">
      <circle id="Ellipse_1-107" data-name="Ellipse 1" cx="4" cy="4" r="4" transform="translate(73 57)" fill="#85b8a3"/>
    </g>
    <g transform="translate(151 251)">
      <circle id="Ellipse_1-108" data-name="Ellipse 1" cx="4" cy="4" r="4" transform="translate(73 57)" fill="#85b8a3"/>
    </g>
    <g transform="translate(-73 279)">
      <circle id="Ellipse_1-109" data-name="Ellipse 1" cx="4" cy="4" r="4" transform="translate(73 57)" fill="#85b8a3"/>
    </g>
    <g transform="translate(-45 279)">
      <circle id="Ellipse_1-110" data-name="Ellipse 1" cx="4" cy="4" r="4" transform="translate(73 57)" fill="#85b8a3"/>
    </g>
    <g transform="translate(-17 279)">
      <circle id="Ellipse_1-111" data-name="Ellipse 1" cx="4" cy="4" r="4" transform="translate(73 57)" fill="#85b8a3"/>
    </g>
    <g transform="translate(11 279)">
      <circle id="Ellipse_1-112" data-name="Ellipse 1" cx="4" cy="4" r="4" transform="translate(73 57)" fill="#85b8a3"/>
    </g>
    <g transform="translate(39 279)">
      <circle id="Ellipse_1-113" data-name="Ellipse 1" cx="4" cy="4" r="4" transform="translate(73 57)" fill="#85b8a3"/>
    </g>
    <g transform="translate(67 279)">
      <circle id="Ellipse_1-114" data-name="Ellipse 1" cx="4" cy="4" r="4" transform="translate(73 57)" fill="#85b8a3"/>
    </g>
    <g transform="translate(95 279)">
      <circle id="Ellipse_1-115" data-name="Ellipse 1" cx="4" cy="4" r="4" transform="translate(73 57)" fill="#85b8a3"/>
    </g>
    <g transform="translate(123 279)">
      <circle id="Ellipse_1-116" data-name="Ellipse 1" cx="4" cy="4" r="4" transform="translate(73 57)" fill="#85b8a3"/>
    </g>
    <g transform="translate(151 279)">
      <circle id="Ellipse_1-117" data-name="Ellipse 1" cx="4" cy="4" r="4" transform="translate(73 57)" fill="#85b8a3"/>
    </g>
    <g transform="translate(-73 307)">
      <circle id="Ellipse_1-118" data-name="Ellipse 1" cx="4" cy="4" r="4" transform="translate(73 57)" fill="#85b8a3"/>
    </g>
    <g transform="translate(-45 307)">
      <circle id="Ellipse_1-119" data-name="Ellipse 1" cx="4" cy="4" r="4" transform="translate(73 57)" fill="#85b8a3"/>
    </g>
    <g transform="translate(-17 307)">
      <circle id="Ellipse_1-120" data-name="Ellipse 1" cx="4" cy="4" r="4" transform="translate(73 57)" fill="#85b8a3"/>
    </g>
    <g transform="translate(11 307)">
      <circle id="Ellipse_1-121" data-name="Ellipse 1" cx="4" cy="4" r="4" transform="translate(73 57)" fill="#85b8a3"/>
    </g>
    <g transform="translate(39 307)">
      <circle id="Ellipse_1-122" data-name="Ellipse 1" cx="4" cy="4" r="4" transform="translate(73 57)" fill="#85b8a3"/>
    </g>
    <g transform="translate(67 307)">
      <circle id="Ellipse_1-123" data-name="Ellipse 1" cx="4" cy="4" r="4" transform="translate(73 57)" fill="#85b8a3"/>
    </g>
    <g transform="translate(95 307)">
      <circle id="Ellipse_1-124" data-name="Ellipse 1" cx="4" cy="4" r="4" transform="translate(73 57)" fill="#85b8a3"/>
    </g>
    <g transform="translate(123 307)">
      <circle id="Ellipse_1-125" data-name="Ellipse 1" cx="4" cy="4" r="4" transform="translate(73 57)" fill="#85b8a3"/>
    </g>
    <g transform="translate(151 307)">
      <circle id="Ellipse_1-126" data-name="Ellipse 1" cx="4" cy="4" r="4" transform="translate(73 57)" fill="#85b8a3"/>
    </g>
    <g transform="translate(-73 335)">
      <circle id="Ellipse_1-127" data-name="Ellipse 1" cx="4" cy="4" r="4" transform="translate(73 57)" fill="#85b8a3"/>
    </g>
    <g transform="translate(-45 335)">
      <circle id="Ellipse_1-128" data-name="Ellipse 1" cx="4" cy="4" r="4" transform="translate(73 57)" fill="#85b8a3"/>
    </g>
    <g transform="translate(-17 335)">
      <circle id="Ellipse_1-129" data-name="Ellipse 1" cx="4" cy="4" r="4" transform="translate(73 57)" fill="#85b8a3"/>
    </g>
    <g transform="translate(11 335)">
      <circle id="Ellipse_1-130" data-name="Ellipse 1" cx="4" cy="4" r="4" transform="translate(73 57)" fill="#85b8a3"/>
    </g>
    <g transform="translate(39 335)">
      <circle id="Ellipse_1-131" data-name="Ellipse 1" cx="4" cy="4" r="4" transform="translate(73 57)" fill="#85b8a3"/>
    </g>
    <g transform="translate(67 335)">
      <circle id="Ellipse_1-132" data-name="Ellipse 1" cx="4" cy="4" r="4" transform="translate(73 57)" fill="#85b8a3"/>
    </g>
    <g transform="translate(95 335)">
      <circle id="Ellipse_1-133" data-name="Ellipse 1" cx="4" cy="4" r="4" transform="translate(73 57)" fill="#85b8a3"/>
    </g>
    <g transform="translate(123 335)">
      <circle id="Ellipse_1-134" data-name="Ellipse 1" cx="4" cy="4" r="4" transform="translate(73 57)" fill="#85b8a3"/>
    </g>
    <g transform="translate(151 335)">
      <circle id="Ellipse_1-135" data-name="Ellipse 1" cx="4" cy="4" r="4" transform="translate(73 57)" fill="#85b8a3"/>
    </g>
    <g transform="translate(-73 363)">
      <circle id="Ellipse_1-136" data-name="Ellipse 1" cx="4" cy="4" r="4" transform="translate(73 57)" fill="#85b8a3"/>
    </g>
    <g transform="translate(-45 363)">
      <circle id="Ellipse_1-137" data-name="Ellipse 1" cx="4" cy="4" r="4" transform="translate(73 57)" fill="#85b8a3"/>
    </g>
    <g transform="translate(-17 363)">
      <circle id="Ellipse_1-138" data-name="Ellipse 1" cx="4" cy="4" r="4" transform="translate(73 57)" fill="#85b8a3"/>
    </g>
    <g transform="translate(11 363)">
      <circle id="Ellipse_1-139" data-name="Ellipse 1" cx="4" cy="4" r="4" transform="translate(73 57)" fill="#85b8a3"/>
    </g>
    <g transform="translate(39 363)">
      <circle id="Ellipse_1-140" data-name="Ellipse 1" cx="4" cy="4" r="4" transform="translate(73 57)" fill="#85b8a3"/>
    </g>
    <g transform="translate(67 363)">
      <circle id="Ellipse_1-141" data-name="Ellipse 1" cx="4" cy="4" r="4" transform="translate(73 57)" fill="#85b8a3"/>
    </g>
    <g transform="translate(95 363)">
      <circle id="Ellipse_1-142" data-name="Ellipse 1" cx="4" cy="4" r="4" transform="translate(73 57)" fill="#85b8a3"/>
    </g>
    <g transform="translate(123 363)">
      <circle id="Ellipse_1-143" data-name="Ellipse 1" cx="4" cy="4" r="4" transform="translate(73 57)" fill="#85b8a3"/>
    </g>
    <g transform="translate(151 363)">
      <circle id="Ellipse_1-144" data-name="Ellipse 1" cx="4" cy="4" r="4" transform="translate(73 57)" fill="#85b8a3"/>
    </g>
    <g transform="translate(-73 391)">
      <circle id="Ellipse_1-145" data-name="Ellipse 1" cx="4" cy="4" r="4" transform="translate(73 57)" fill="#85b8a3"/>
    </g>
    <g transform="translate(-45 391)">
      <circle id="Ellipse_1-146" data-name="Ellipse 1" cx="4" cy="4" r="4" transform="translate(73 57)" fill="#85b8a3"/>
    </g>
    <g transform="translate(-17 391)">
      <circle id="Ellipse_1-147" data-name="Ellipse 1" cx="4" cy="4" r="4" transform="translate(73 57)" fill="#85b8a3"/>
    </g>
    <g transform="translate(11 391)">
      <circle id="Ellipse_1-148" data-name="Ellipse 1" cx="4" cy="4" r="4" transform="translate(73 57)" fill="#85b8a3"/>
    </g>
    <g transform="translate(39 391)">
      <circle id="Ellipse_1-149" data-name="Ellipse 1" cx="4" cy="4" r="4" transform="translate(73 57)" fill="#85b8a3"/>
    </g>
    <g transform="translate(67 391)">
      <circle id="Ellipse_1-150" data-name="Ellipse 1" cx="4" cy="4" r="4" transform="translate(73 57)" fill="#85b8a3"/>
    </g>
    <g transform="translate(95 391)">
      <circle id="Ellipse_1-151" data-name="Ellipse 1" cx="4" cy="4" r="4" transform="translate(73 57)" fill="#85b8a3"/>
    </g>
    <g transform="translate(123 391)">
      <circle id="Ellipse_1-152" data-name="Ellipse 1" cx="4" cy="4" r="4" transform="translate(73 57)" fill="#85b8a3"/>
    </g>
    <g transform="translate(151 391)">
      <circle id="Ellipse_1-153" data-name="Ellipse 1" cx="4" cy="4" r="4" transform="translate(73 57)" fill="#85b8a3"/>
    </g>
    <g transform="translate(-73 419)">
      <circle id="Ellipse_1-154" data-name="Ellipse 1" cx="4" cy="4" r="4" transform="translate(73 57)" fill="#85b8a3"/>
    </g>
    <g transform="translate(-45 419)">
      <circle id="Ellipse_1-155" data-name="Ellipse 1" cx="4" cy="4" r="4" transform="translate(73 57)" fill="#85b8a3"/>
    </g>
    <g transform="translate(-17 419)">
      <circle id="Ellipse_1-156" data-name="Ellipse 1" cx="4" cy="4" r="4" transform="translate(73 57)" fill="#85b8a3"/>
    </g>
    <g transform="translate(11 419)">
      <circle id="Ellipse_1-157" data-name="Ellipse 1" cx="4" cy="4" r="4" transform="translate(73 57)" fill="#85b8a3"/>
    </g>
    <g transform="translate(39 419)">
      <circle id="Ellipse_1-158" data-name="Ellipse 1" cx="4" cy="4" r="4" transform="translate(73 57)" fill="#85b8a3"/>
    </g>
    <g transform="translate(67 419)">
      <circle id="Ellipse_1-159" data-name="Ellipse 1" cx="4" cy="4" r="4" transform="translate(73 57)" fill="#85b8a3"/>
    </g>
    <g transform="translate(95 419)">
      <circle id="Ellipse_1-160" data-name="Ellipse 1" cx="4" cy="4" r="4" transform="translate(73 57)" fill="#85b8a3"/>
    </g>
    <g transform="translate(123 419)">
      <circle id="Ellipse_1-161" data-name="Ellipse 1" cx="4" cy="4" r="4" transform="translate(73 57)" fill="#85b8a3"/>
    </g>
    <g transform="translate(151 419)">
      <circle id="Ellipse_1-162" data-name="Ellipse 1" cx="4" cy="4" r="4" transform="translate(73 57)" fill="#85b8a3"/>
    </g>
    <g transform="translate(-73 447)">
      <circle id="Ellipse_1-163" data-name="Ellipse 1" cx="4" cy="4" r="4" transform="translate(73 57)" fill="#85b8a3"/>
    </g>
    <g transform="translate(-45 447)">
      <circle id="Ellipse_1-164" data-name="Ellipse 1" cx="4" cy="4" r="4" transform="translate(73 57)" fill="#85b8a3"/>
    </g>
    <g transform="translate(-17 447)">
      <circle id="Ellipse_1-165" data-name="Ellipse 1" cx="4" cy="4" r="4" transform="translate(73 57)" fill="#85b8a3"/>
    </g>
    <g transform="translate(11 447)">
      <circle id="Ellipse_1-166" data-name="Ellipse 1" cx="4" cy="4" r="4" transform="translate(73 57)" fill="#85b8a3"/>
    </g>
    <g transform="translate(39 447)">
      <circle id="Ellipse_1-167" data-name="Ellipse 1" cx="4" cy="4" r="4" transform="translate(73 57)" fill="#85b8a3"/>
    </g>
    <g transform="translate(67 447)">
      <circle id="Ellipse_1-168" data-name="Ellipse 1" cx="4" cy="4" r="4" transform="translate(73 57)" fill="#85b8a3"/>
    </g>
    <g transform="translate(95 447)">
      <circle id="Ellipse_1-169" data-name="Ellipse 1" cx="4" cy="4" r="4" transform="translate(73 57)" fill="#85b8a3"/>
    </g>
    <g transform="translate(123 447)">
      <circle id="Ellipse_1-170" data-name="Ellipse 1" cx="4" cy="4" r="4" transform="translate(73 57)" fill="#85b8a3"/>
    </g>
    <g transform="translate(151 447)">
      <circle id="Ellipse_1-171" data-name="Ellipse 1" cx="4" cy="4" r="4" transform="translate(73 57)" fill="#85b8a3"/>
    </g>
    <g transform="translate(-73 475)">
      <circle id="Ellipse_1-172" data-name="Ellipse 1" cx="4" cy="4" r="4" transform="translate(73 57)" fill="#85b8a3"/>
    </g>
    <g transform="translate(-45 475)">
      <circle id="Ellipse_1-173" data-name="Ellipse 1" cx="4" cy="4" r="4" transform="translate(73 57)" fill="#85b8a3"/>
    </g>
    <g transform="translate(-17 475)">
      <circle id="Ellipse_1-174" data-name="Ellipse 1" cx="4" cy="4" r="4" transform="translate(73 57)" fill="#85b8a3"/>
    </g>
    <g transform="translate(11 475)">
      <circle id="Ellipse_1-175" data-name="Ellipse 1" cx="4" cy="4" r="4" transform="translate(73 57)" fill="#85b8a3"/>
    </g>
    <g transform="translate(39 475)">
      <circle id="Ellipse_1-176" data-name="Ellipse 1" cx="4" cy="4" r="4" transform="translate(73 57)" fill="#85b8a3"/>
    </g>
    <g transform="translate(67 475)">
      <circle id="Ellipse_1-177" data-name="Ellipse 1" cx="4" cy="4" r="4" transform="translate(73 57)" fill="#85b8a3"/>
    </g>
    <g transform="translate(95 475)">
      <circle id="Ellipse_1-178" data-name="Ellipse 1" cx="4" cy="4" r="4" transform="translate(73 57)" fill="#85b8a3"/>
    </g>
    <g transform="translate(123 475)">
      <circle id="Ellipse_1-179" data-name="Ellipse 1" cx="4" cy="4" r="4" transform="translate(73 57)" fill="#85b8a3"/>
    </g>
    <g transform="translate(151 475)">
      <circle id="Ellipse_1-180" data-name="Ellipse 1" cx="4" cy="4" r="4" transform="translate(73 57)" fill="#85b8a3"/>
    </g>
    <g transform="translate(-73 503)">
      <circle id="Ellipse_1-181" data-name="Ellipse 1" cx="4" cy="4" r="4" transform="translate(73 57)" fill="#85b8a3"/>
    </g>
    <g transform="translate(-45 503)">
      <circle id="Ellipse_1-182" data-name="Ellipse 1" cx="4" cy="4" r="4" transform="translate(73 57)" fill="#85b8a3"/>
    </g>
    <g transform="translate(-17 503)">
      <circle id="Ellipse_1-183" data-name="Ellipse 1" cx="4" cy="4" r="4" transform="translate(73 57)" fill="#85b8a3"/>
    </g>
    <g transform="translate(11 503)">
      <circle id="Ellipse_1-184" data-name="Ellipse 1" cx="4" cy="4" r="4" transform="translate(73 57)" fill="#85b8a3"/>
    </g>
    <g transform="translate(39 503)">
      <circle id="Ellipse_1-185" data-name="Ellipse 1" cx="4" cy="4" r="4" transform="translate(73 57)" fill="#85b8a3"/>
    </g>
    <g transform="translate(67 503)">
      <circle id="Ellipse_1-186" data-name="Ellipse 1" cx="4" cy="4" r="4" transform="translate(73 57)" fill="#85b8a3"/>
    </g>
    <g transform="translate(95 503)">
      <circle id="Ellipse_1-187" data-name="Ellipse 1" cx="4" cy="4" r="4" transform="translate(73 57)" fill="#85b8a3"/>
    </g>
    <g transform="translate(123 503)">
      <circle id="Ellipse_1-188" data-name="Ellipse 1" cx="4" cy="4" r="4" transform="translate(73 57)" fill="#85b8a3"/>
    </g>
    <g transform="translate(151 503)">
      <circle id="Ellipse_1-189" data-name="Ellipse 1" cx="4" cy="4" r="4" transform="translate(73 57)" fill="#85b8a3"/>
    </g>
  </g>
</svg>
