<svg xmlns="http://www.w3.org/2000/svg" xmlns:xlink="http://www.w3.org/1999/xlink" width="1452.504" height="206.285" viewBox="0 0 1452.504 206.285">
  <defs>
    <linearGradient id="linear-gradient" x1="0.097" y1="1" x2="1.073" y2="-0.571" gradientUnits="objectBoundingBox">
      <stop offset="0" stop-color="#fff"/>
      <stop offset="1" stop-color="#4d9378"/>
    </linearGradient>
  </defs>
  <path id="Intersection_1" data-name="Intersection 1" d="M1434.317,245a1.945,1.945,0,0,1-1.786-2.074c0-5.725,4-10.366,8.934-10.366h12.508V182.705l-47.811-55.472c-4.747-5.511-1.384-14.928,5.327-14.928h41.384l.283-50.746,0,.007c30.074-7.133,55.442,8.407,63.825,38.931L1496.493,112.3h14.257c6.713,0,10.075,9.418,5.328,14.928l-47.81,55.472V232.56h12.507c4.935,0,8.934,4.641,8.934,10.366a1.946,1.946,0,0,1-1.786,2.074Zm34.038-142.5a5.707,5.707,0,0,0-4.05,6.977,5.9,5.9,0,0,0,1.632,2.83h7.755a5.823,5.823,0,0,0,1.515-5.549,5.761,5.761,0,0,0-5.526-4.422A5.469,5.469,0,0,0,1468.354,102.5Zm23.789-14.882a5.633,5.633,0,1,0,1.324-.164A5.452,5.452,0,0,0,1492.143,87.615Zm-22.266-13.843a5.633,5.633,0,1,0,1.324-.164A5.491,5.491,0,0,0,1469.877,73.772ZM350.9,183.552c0-35.1,22.724-61.2,59.4-61.2,39.375,0,59.4,28.8,59.4,70.651H386.9c0,16.2,11.925,24.75,24.75,24.75,12.376,0,18.225-5.851,20.475-11.475H467.9c-6.3,23.175-24.3,38.474-55.575,38.474C374.073,244.751,350.9,219.552,350.9,183.552Zm36-12.375h46.8c0-15.975-9.674-24.075-23.4-24.075S386.9,155.2,386.9,171.177Zm778.95,39.15c3.825-18.9,18.225-27.45,49.725-32.851,17.775-3.149,36.9-2.249,40.95-22.049,3.375-16.425-8.325-25.65-28.35-25.65-23.175,0-35.325,11.025-39.825,28.349h-6.75c4.275-15.974,15.3-34.2,47.7-34.2,23.175,0,38.025,11.025,32.85,37.124l-11.025,56.926c-1.8,9-6.975,21.6,13.725,17.549l-1.125,5.85a37.884,37.884,0,0,1-7.65.9c-11.025,0-15.3-5.4-12.6-20.025h-.45c-12.15,15.3-30.375,21.375-46.349,21.375C1174.624,243.627,1161.8,230.8,1165.848,210.327Zm50.85-27c-22.5,3.6-40.5,10.126-44.1,27.676-3.6,17.775,6.3,26.774,27,26.774,23.625,0,44.549-18.9,47.25-31.949l6.524-34.2C1248.648,179.052,1234.024,180.627,1216.7,183.326Zm-349.875,27c3.825-18.9,18.225-27.45,49.725-32.851,17.775-3.149,36.9-2.249,40.951-22.049,3.374-16.425-8.326-25.65-28.351-25.65-23.174,0-35.324,11.025-39.825,28.349h-6.75c4.275-15.974,15.3-34.2,47.7-34.2,23.175,0,38.024,11.025,32.85,37.124L952.1,217.977c-1.8,9-6.975,21.6,13.725,17.549l-1.125,5.85a37.889,37.889,0,0,1-7.65.9c-11.025,0-15.3-5.4-12.6-20.025H944c-12.151,15.3-30.376,21.375-46.351,21.375C875.6,243.627,862.773,230.8,866.823,210.327Zm50.85-27c-22.5,3.6-40.5,10.126-44.1,27.676-3.6,17.775,6.3,26.774,27,26.774,23.625,0,44.55-18.9,47.25-31.949l6.525-34.2C949.624,179.052,935,180.627,917.673,183.326Zm358.65,57.826,22.5-115.65h6.749l-4.724,23.175h.451c7.875-13.5,23.849-24.75,39.824-24.75a41.308,41.308,0,0,1,8.325.674l-1.125,5.851h-.45c-21.374-3.375-45.9,13.5-50.849,38.925l-13.951,71.775Zm-244.575,0,31.275-160.875h62.55c29.025,0,43.65,14.625,38.7,40.275-3.375,17.549-15.3,29.925-33.3,35.549l-.224.451c19.349,4.5,29.924,18.9,25.875,40.05-6.3,31.724-29.926,44.55-58.951,44.55Zm8.325-6.3h58.05c24.975,0,45.9-10.8,51.3-38.249,4.274-22.275-9.225-36.675-33.526-36.675h-61.2Zm15.975-81.224h60.3c20.475,0,37.125-13.725,40.725-33.075,4.05-20.475-6.975-33.976-32.624-33.976H1069.1Zm-289.8,87.525,1.124-5.85,96.3-103.5v-.45H791.223l1.125-5.85h81l-1.125,5.85-96.3,103.5v.451h78.3l-1.125,5.85Zm-97.651,0,1.125-5.85,96.3-103.5v-.45h-72.45l1.125-5.85h81l-1.126,5.85-96.3,103.5v.451h78.3l-1.125,5.85Zm-27.45,0,22.5-115.65H670.4l-22.5,115.65Zm-126.9,0L545.523,80.277h57.15c29.7,0,48.6,11.925,42.075,45.674C638,159.7,614.6,171.627,584.9,171.627h-49.95l-13.5,69.525ZM536.3,165.326h51.975c25.425,0,43.875-11.924,49.275-39.375C642.723,98.5,629,86.576,603.573,86.576H551.6ZM303.423,241.152V174.777c0-17.326-5.625-23.175-18.675-23.175-11.475,0-20.925,6.975-20.925,22.95v66.6h-36V80.277h36V142.6h.451c6.074-10.575,17.324-20.251,35.775-20.251,24.3,0,39.375,14.626,39.375,40.951v77.85Zm-175.274,0v-127.8h-46.8V80.277H215.223v33.075H168.648v127.8ZM667.923,92.427a6.8,6.8,0,0,1,6.525-5.4c2.7,0,5.4,1.8,4.725,5.4a7.107,7.107,0,0,1-6.749,5.4A4.447,4.447,0,0,1,667.923,92.427ZM1453.19,55.656l.06-10.509a5.8,5.8,0,0,1,4.961-5.734c31.735-4.711,63.77,14.856,75.24,45.709A5.972,5.972,0,0,1,1531,92.428l-9.006,5.188C1512.48,65.23,1485.386,48.652,1453.19,55.656Z" transform="translate(-81.348 -38.715)" fill="url(#linear-gradient)"/>
</svg>
