<svg xmlns="http://www.w3.org/2000/svg" xmlns:xlink="http://www.w3.org/1999/xlink" width="771.754" height="591.819" viewBox="0 0 771.754 591.819">
  <defs>
    <clipPath id="clip-path">
      <rect width="771.754" height="591.819" fill="none"/>
    </clipPath>
  </defs>
  <g id="Repeat_Grid_1" data-name="Repeat Grid 1" clip-path="url(#clip-path)">
    <g transform="translate(-303.689 -57.689)">
      <line id="Line_1" data-name="Line 1" y1="1" x2="120" transform="translate(390.026 63.319) rotate(45)" fill="none" stroke="#000" stroke-width="10"/>
      <path id="Path_1" data-name="Path 1" d="M.707,1l120-1" transform="translate(396.879 65.026) rotate(135)" fill="none" stroke="#000" stroke-width="10"/>
    </g>
    <g transform="translate(-108.689 -57.689)">
      <line id="Line_1-2" data-name="Line 1" y1="1" x2="120" transform="translate(390.026 63.319) rotate(45)" fill="none" stroke="#000" stroke-width="10"/>
      <path id="Path_1-2" data-name="Path 1" d="M.707,1l120-1" transform="translate(396.879 65.026) rotate(135)" fill="none" stroke="#000" stroke-width="10"/>
    </g>
    <g transform="translate(86.311 -57.689)">
      <line id="Line_1-3" data-name="Line 1" y1="1" x2="120" transform="translate(390.026 63.319) rotate(45)" fill="none" stroke="#000" stroke-width="10"/>
      <path id="Path_1-3" data-name="Path 1" d="M.707,1l120-1" transform="translate(396.879 65.026) rotate(135)" fill="none" stroke="#000" stroke-width="10"/>
    </g>
    <g transform="translate(281.311 -57.689)">
      <line id="Line_1-4" data-name="Line 1" y1="1" x2="120" transform="translate(390.026 63.319) rotate(45)" fill="none" stroke="#000" stroke-width="10"/>
      <path id="Path_1-4" data-name="Path 1" d="M.707,1l120-1" transform="translate(396.879 65.026) rotate(135)" fill="none" stroke="#000" stroke-width="10"/>
    </g>
    <g transform="translate(-303.689 62.311)">
      <line id="Line_1-5" data-name="Line 1" y1="1" x2="120" transform="translate(390.026 63.319) rotate(45)" fill="none" stroke="#000" stroke-width="10"/>
      <path id="Path_1-5" data-name="Path 1" d="M.707,1l120-1" transform="translate(396.879 65.026) rotate(135)" fill="none" stroke="#000" stroke-width="10"/>
    </g>
    <g transform="translate(-108.689 62.311)">
      <line id="Line_1-6" data-name="Line 1" y1="1" x2="120" transform="translate(390.026 63.319) rotate(45)" fill="none" stroke="#000" stroke-width="10"/>
      <path id="Path_1-6" data-name="Path 1" d="M.707,1l120-1" transform="translate(396.879 65.026) rotate(135)" fill="none" stroke="#000" stroke-width="10"/>
    </g>
    <g transform="translate(86.311 62.311)">
      <line id="Line_1-7" data-name="Line 1" y1="1" x2="120" transform="translate(390.026 63.319) rotate(45)" fill="none" stroke="#000" stroke-width="10"/>
      <path id="Path_1-7" data-name="Path 1" d="M.707,1l120-1" transform="translate(396.879 65.026) rotate(135)" fill="none" stroke="#000" stroke-width="10"/>
    </g>
    <g transform="translate(281.311 62.311)">
      <line id="Line_1-8" data-name="Line 1" y1="1" x2="120" transform="translate(390.026 63.319) rotate(45)" fill="none" stroke="#000" stroke-width="10"/>
      <path id="Path_1-8" data-name="Path 1" d="M.707,1l120-1" transform="translate(396.879 65.026) rotate(135)" fill="none" stroke="#000" stroke-width="10"/>
    </g>
    <g transform="translate(-303.689 182.311)">
      <line id="Line_1-9" data-name="Line 1" y1="1" x2="120" transform="translate(390.026 63.319) rotate(45)" fill="none" stroke="#000" stroke-width="10"/>
      <path id="Path_1-9" data-name="Path 1" d="M.707,1l120-1" transform="translate(396.879 65.026) rotate(135)" fill="none" stroke="#000" stroke-width="10"/>
    </g>
    <g transform="translate(-108.689 182.311)">
      <line id="Line_1-10" data-name="Line 1" y1="1" x2="120" transform="translate(390.026 63.319) rotate(45)" fill="none" stroke="#000" stroke-width="10"/>
      <path id="Path_1-10" data-name="Path 1" d="M.707,1l120-1" transform="translate(396.879 65.026) rotate(135)" fill="none" stroke="#000" stroke-width="10"/>
    </g>
    <g transform="translate(86.311 182.311)">
      <line id="Line_1-11" data-name="Line 1" y1="1" x2="120" transform="translate(390.026 63.319) rotate(45)" fill="none" stroke="#000" stroke-width="10"/>
      <path id="Path_1-11" data-name="Path 1" d="M.707,1l120-1" transform="translate(396.879 65.026) rotate(135)" fill="none" stroke="#000" stroke-width="10"/>
    </g>
    <g transform="translate(281.311 182.311)">
      <line id="Line_1-12" data-name="Line 1" y1="1" x2="120" transform="translate(390.026 63.319) rotate(45)" fill="none" stroke="#000" stroke-width="10"/>
      <path id="Path_1-12" data-name="Path 1" d="M.707,1l120-1" transform="translate(396.879 65.026) rotate(135)" fill="none" stroke="#000" stroke-width="10"/>
    </g>
    <g transform="translate(-303.689 302.311)">
      <line id="Line_1-13" data-name="Line 1" y1="1" x2="120" transform="translate(390.026 63.319) rotate(45)" fill="none" stroke="#000" stroke-width="10"/>
      <path id="Path_1-13" data-name="Path 1" d="M.707,1l120-1" transform="translate(396.879 65.026) rotate(135)" fill="none" stroke="#000" stroke-width="10"/>
    </g>
    <g transform="translate(-108.689 302.311)">
      <line id="Line_1-14" data-name="Line 1" y1="1" x2="120" transform="translate(390.026 63.319) rotate(45)" fill="none" stroke="#000" stroke-width="10"/>
      <path id="Path_1-14" data-name="Path 1" d="M.707,1l120-1" transform="translate(396.879 65.026) rotate(135)" fill="none" stroke="#000" stroke-width="10"/>
    </g>
    <g transform="translate(86.311 302.311)">
      <line id="Line_1-15" data-name="Line 1" y1="1" x2="120" transform="translate(390.026 63.319) rotate(45)" fill="none" stroke="#000" stroke-width="10"/>
      <path id="Path_1-15" data-name="Path 1" d="M.707,1l120-1" transform="translate(396.879 65.026) rotate(135)" fill="none" stroke="#000" stroke-width="10"/>
    </g>
    <g transform="translate(281.311 302.311)">
      <line id="Line_1-16" data-name="Line 1" y1="1" x2="120" transform="translate(390.026 63.319) rotate(45)" fill="none" stroke="#000" stroke-width="10"/>
      <path id="Path_1-16" data-name="Path 1" d="M.707,1l120-1" transform="translate(396.879 65.026) rotate(135)" fill="none" stroke="#000" stroke-width="10"/>
    </g>
    <g transform="translate(-303.689 422.311)">
      <line id="Line_1-17" data-name="Line 1" y1="1" x2="120" transform="translate(390.026 63.319) rotate(45)" fill="none" stroke="#000" stroke-width="10"/>
      <path id="Path_1-17" data-name="Path 1" d="M.707,1l120-1" transform="translate(396.879 65.026) rotate(135)" fill="none" stroke="#000" stroke-width="10"/>
    </g>
    <g transform="translate(-108.689 422.311)">
      <line id="Line_1-18" data-name="Line 1" y1="1" x2="120" transform="translate(390.026 63.319) rotate(45)" fill="none" stroke="#000" stroke-width="10"/>
      <path id="Path_1-18" data-name="Path 1" d="M.707,1l120-1" transform="translate(396.879 65.026) rotate(135)" fill="none" stroke="#000" stroke-width="10"/>
    </g>
    <g transform="translate(86.311 422.311)">
      <line id="Line_1-19" data-name="Line 1" y1="1" x2="120" transform="translate(390.026 63.319) rotate(45)" fill="none" stroke="#000" stroke-width="10"/>
      <path id="Path_1-19" data-name="Path 1" d="M.707,1l120-1" transform="translate(396.879 65.026) rotate(135)" fill="none" stroke="#000" stroke-width="10"/>
    </g>
    <g transform="translate(281.311 422.311)">
      <line id="Line_1-20" data-name="Line 1" y1="1" x2="120" transform="translate(390.026 63.319) rotate(45)" fill="none" stroke="#000" stroke-width="10"/>
      <path id="Path_1-20" data-name="Path 1" d="M.707,1l120-1" transform="translate(396.879 65.026) rotate(135)" fill="none" stroke="#000" stroke-width="10"/>
    </g>
  </g>
</svg>
